<svg width="128" height="127" viewBox="0 0 128 127" fill="none" xmlns="http://www.w3.org/2000/svg">
<path d="M0 63.5C0 41.5695 0 30.6043 4.18318 22.1911C8.06361 14.3869 14.3869 8.06361 22.1911 4.18318C30.6043 0 41.7362 0 64 0C86.2638 0 97.3957 0 105.809 4.18318C113.613 8.06361 119.936 14.3869 123.817 22.1911C128 30.6043 128 41.5695 128 63.5C128 85.4305 128 96.3957 123.817 104.809C119.936 112.613 113.613 118.936 105.809 122.817C97.3957 127 86.2638 127 64 127C41.7362 127 30.6043 127 22.1911 122.817C14.3869 118.936 8.06361 112.613 4.18318 104.809C0 96.3957 0 85.4305 0 63.5Z" fill="black"/>
<path d="M25 75.4683H47.1835C55.498 75.4683 57.8095 72.3111 57.8095 68.4304V67.9699C57.8095 63.6946 54.049 62.2475 52.2895 61.82C53.5315 61.4911 56.3605 60.2085 56.3605 57.0513V56.5909C56.3605 53.6968 54.325 51 46.9765 51H25V75.4683ZM45.5965 56.1633C47.839 56.1633 48.391 57.0842 48.391 58.1037V58.1695C48.391 59.1561 47.839 60.1427 45.5965 60.1427H33.0385V56.1633H45.5965ZM46.2865 65.3389C48.943 65.3389 49.4605 66.5558 49.4605 67.6082V67.7397C49.4605 68.7263 48.9775 70.1405 46.2865 70.1405H33.0385V65.3389H46.2865Z" fill="white"/>
<path d="M68.1786 66.786H78.6666C82.6341 66.786 84.0141 68.1015 84.0141 71.0942V73.9226C84.0141 74.7776 84.1521 75.1723 84.3936 75.4683H92.5701V75.3038C92.3631 74.9092 92.0871 74.2843 92.0871 72.3111V68.7263C92.0871 65.602 89.8446 63.7603 87.2226 63.1026C88.9131 62.6093 91.9836 61.228 91.9836 57.7419V57.3473C91.9836 53.8283 89.3961 51 80.8401 51H60.1401V75.4683H68.1786V66.786ZM68.1786 56.558H80.3571C82.7031 56.558 83.6001 57.6433 83.6001 58.9259V58.9588C83.6001 60.3071 82.6341 61.3595 80.3571 61.3595H68.1786V56.558Z" fill="white"/>
<path d="M102.6 69.713H94.2854V75.4683H102.6V69.713Z" fill="white"/>
</svg>
