<svg width="166" height="15" viewBox="0 0 166 15" fill="none" xmlns="http://www.w3.org/2000/svg">
<path d="M0 14.8135H9.75143C18.3382 14.8323 20.0951 11.0125 20.0951 8.00173V7.43722C20.0951 4.29476 18.2395 0.813599 9.7317 0.813599H0V14.8135ZM4.59936 4.12541H9.37638C14.6469 4.12541 15.2786 6.28938 15.2786 7.71948V7.83238C15.2786 9.26248 14.5877 11.4453 9.37638 11.4453H4.59936V4.12541Z" fill="white"/>
<path d="M21.5518 0.813599V14.8135H37.2252V11.5582H26.0919V9.26248H36.7711V6.06357H26.0919V3.99369H37.0278V0.813599H21.5518Z" fill="white"/>
<path d="M58.1249 0.813599H53.3479L48.2748 11.1066L42.8661 0.813599H37.6548L45.2941 14.8135H51.0186L58.1249 0.813599Z" fill="white"/>
<path d="M71.3647 14.8135H76.3194L68.463 0.813599H62.5016L55.0794 14.8135H59.7578L61.0803 12.2544H69.9829L71.3647 14.8135ZM62.7187 9.09313L65.4428 3.84315L68.2853 9.09313H62.7187Z" fill="white"/>
<path d="M88.0268 10.1469C93.2775 10.1469 94.8765 8.05819 94.8765 5.55551V5.36734C94.8765 2.80821 93.2973 0.813599 88.0268 0.813599H77.012V14.8135H81.6114V10.1469H88.0268ZM81.6114 3.99369H87.9478C89.4086 3.99369 90.0797 4.53939 90.0797 5.48024V5.53669C90.0797 6.47755 89.3888 7.00443 87.9478 7.00443H81.6114V3.99369Z" fill="white"/>
<path d="M107.285 10.1469C112.535 10.1469 114.134 8.05819 114.134 5.55551V5.36734C114.134 2.80821 112.555 0.813599 107.285 0.813599H96.2698V14.8135H100.869V10.1469H107.285ZM100.869 3.99369H107.206C108.666 3.99369 109.338 4.53939 109.338 5.48024V5.53669C109.338 6.47755 108.647 7.00443 107.206 7.00443H100.869V3.99369Z" fill="white"/>
<path d="M121.6 14.8135H134.293C139.05 14.8135 140.372 13.0071 140.372 10.7867V10.5232C140.372 8.077 138.221 7.24905 137.214 7.00443C137.925 6.81626 139.543 6.08239 139.543 4.27595V4.01251C139.543 2.3566 138.379 0.813599 134.174 0.813599H121.6V14.8135ZM133.385 3.76788C134.668 3.76788 134.983 4.29476 134.983 4.87809V4.91573C134.983 5.48024 134.668 6.04475 133.385 6.04475H126.199V3.76788H133.385ZM133.779 9.01786C135.299 9.01786 135.595 9.71409 135.595 10.3162V10.3915C135.595 10.956 135.319 11.7652 133.779 11.7652H126.199V9.01786H133.779Z" fill="white"/>
<path d="M146.305 9.84581H152.306C154.576 9.84581 155.366 10.5985 155.366 12.3109V13.9291C155.366 14.4184 155.445 14.6442 155.583 14.8135H160.261V14.7194C160.143 14.4936 159.985 14.1361 159.985 13.0071V10.956C159.985 9.1684 158.702 8.11464 157.202 7.7383C158.169 7.45604 159.926 6.66572 159.926 4.67111V4.4453C159.926 2.43187 158.445 0.813599 153.55 0.813599H141.706V14.8135H146.305V9.84581ZM146.305 3.99369H153.273C154.616 3.99369 155.129 4.61465 155.129 5.34852V5.36734C155.129 6.13884 154.576 6.74099 153.273 6.74099H146.305V3.99369Z" fill="white"/>
<path d="M166 11.5205H161.243V14.8135H166V11.5205Z" fill="white"/>
</svg>
