<svg width="45" height="15" viewBox="0 0 45 15" fill="none" xmlns="http://www.w3.org/2000/svg">
<path d="M0 14.8135H12.6926C17.4499 14.8135 18.7725 13.0071 18.7725 10.7867V10.5232C18.7725 8.077 16.6209 7.24905 15.6141 7.00443C16.3248 6.81626 17.9434 6.08239 17.9434 4.27595V4.01251C17.9434 2.3566 16.7788 0.813599 12.5742 0.813599H0V14.8135ZM11.7846 3.76788C13.0677 3.76788 13.3835 4.29476 13.3835 4.87809V4.91573C13.3835 5.48024 13.0677 6.04475 11.7846 6.04475H4.59937V3.76788H11.7846ZM12.1794 9.01786C13.6994 9.01786 13.9955 9.71409 13.9955 10.3162V10.3915C13.9955 10.956 13.7191 11.7652 12.1794 11.7652H4.59937V9.01786H12.1794Z" fill="white"/>
<path d="M24.7054 9.84581H30.7063C32.9763 9.84581 33.7659 10.5985 33.7659 12.3109V13.9291C33.7659 14.4184 33.8449 14.6442 33.9831 14.8135H38.6614V14.7194C38.5429 14.4936 38.385 14.1361 38.385 13.0071V10.956C38.385 9.1684 37.1019 8.11464 35.6017 7.7383C36.569 7.45604 38.3258 6.66572 38.3258 4.67111V4.4453C38.3258 2.43187 36.8453 0.813599 31.9499 0.813599H20.106V14.8135H24.7054V9.84581ZM24.7054 3.99369H31.6735C33.0158 3.99369 33.529 4.61465 33.529 5.34852V5.36734C33.529 6.13884 32.9763 6.74099 31.6735 6.74099H24.7054V3.99369Z" fill="white"/>
<path d="M44.4001 11.5205H39.6428V14.8135H44.4001V11.5205Z" fill="white"/>
</svg>
